<svg width="300" height="300" viewBox="0 0 300 300" fill="none" xmlns="http://www.w3.org/2000/svg">
<g clip-path="url(#clip0_1_2)">
<circle cx="150" cy="150" r="150" fill="#141414"/>
<path d="M158.16 216.7C156.253 214.207 154.64 211.493 153.32 208.56C152 205.48 150.607 201.813 149.14 197.56C148.847 196.827 147.967 194.627 146.5 190.96C145.18 187.293 143.64 184.14 141.88 181.5C132.64 182.82 125.087 183.48 119.22 183.48C115.993 183.48 112.4 183.407 108.44 183.26C104.627 182.967 101.767 182.82 99.86 182.82C92.5267 182.233 86.66 181.94 82.26 181.94C80.5 184.287 78.96 186.78 77.64 189.42C76.4667 192.06 74.9267 196.02 73.02 201.3C70.38 208.927 68.1067 214.353 66.2 217.58C64.88 219.78 62.3133 220.88 58.5 220.88C55.2733 220.88 52.2667 220.22 49.48 218.9C46.84 217.433 45.52 215.453 45.52 212.96C46.6933 207.387 48.5267 201.52 51.02 195.36C53.66 189.053 57.4 180.693 62.24 170.28L71.04 148.72C75.88 136.4 80.28 125.84 84.24 117.04C88.3467 108.24 93.7 97.8267 100.3 85.8C101.18 84.04 102.647 82.5733 104.7 81.4C106.753 80.08 109.027 79.42 111.52 79.42C114.307 79.42 116.287 79.64 117.46 80.08C118.78 80.3733 119.807 80.96 120.54 81.84C121.273 82.5733 122.373 84.1867 123.84 86.68C128.827 94.4533 133.08 102.447 136.6 110.66C140.267 118.873 144.887 130.24 150.46 144.76L155.08 156.42C159.187 166.98 162.707 175.853 165.64 183.04C168.72 190.08 172.093 196.533 175.76 202.4C178.107 206.213 179.28 208.853 179.28 210.32C179.28 213.84 178.18 216.553 175.98 218.46C173.927 220.22 171.213 221.1 167.84 221.1C163.587 221.1 160.36 219.633 158.16 216.7ZM135.5 163.46C133.153 158.473 129.78 149.82 125.38 137.5C120.833 124.3 116.287 113.813 111.74 106.04C108.953 113.08 104.847 122.173 99.42 133.32C95.7533 140.213 91.5733 150.187 86.88 163.24C96.2667 164.413 106.387 165 117.24 165C125.013 165 131.1 164.487 135.5 163.46ZM232.883 216.7C230.976 214.207 229.363 211.493 228.043 208.56C226.723 205.48 225.329 201.813 223.863 197.56C223.569 196.827 222.689 194.627 221.223 190.96C219.903 187.293 218.363 184.14 216.603 181.5C207.363 182.82 199.809 183.48 193.943 183.48C190.716 183.48 187.123 183.407 183.163 183.26C179.349 182.967 176.489 182.82 174.583 182.82C167.249 182.233 161.383 181.94 156.983 181.94C155.223 184.287 153.683 186.78 152.363 189.42C151.189 192.06 149.649 196.02 147.743 201.3C145.103 208.927 142.829 214.353 140.923 217.58C139.603 219.78 137.036 220.88 133.223 220.88C129.996 220.88 126.989 220.22 124.203 218.9C121.563 217.433 120.243 215.453 120.243 212.96C121.416 207.387 123.249 201.52 125.743 195.36C128.383 189.053 132.123 180.693 136.963 170.28L145.763 148.72C150.603 136.4 155.003 125.84 158.963 117.04C163.069 108.24 168.423 97.8267 175.023 85.8C175.903 84.04 177.369 82.5733 179.423 81.4C181.476 80.08 183.749 79.42 186.243 79.42C189.029 79.42 191.009 79.64 192.183 80.08C193.503 80.3733 194.529 80.96 195.263 81.84C195.996 82.5733 197.096 84.1867 198.563 86.68C203.549 94.4533 207.803 102.447 211.323 110.66C214.989 118.873 219.609 130.24 225.183 144.76L229.803 156.42C233.909 166.98 237.429 175.853 240.363 183.04C243.443 190.08 246.816 196.533 250.483 202.4C252.829 206.213 254.003 208.853 254.003 210.32C254.003 213.84 252.903 216.553 250.703 218.46C248.649 220.22 245.936 221.1 242.563 221.1C238.309 221.1 235.083 219.633 232.883 216.7ZM210.223 163.46C207.876 158.473 204.503 149.82 200.103 137.5C195.556 124.3 191.009 113.813 186.463 106.04C183.676 113.08 179.569 122.173 174.143 133.32C170.476 140.213 166.296 150.187 161.603 163.24C170.989 164.413 181.109 165 191.963 165C199.736 165 205.823 164.487 210.223 163.46Z" fill="white"/>
</g>
<defs>
<clipPath id="clip0_1_2">
<rect width="300" height="300" fill="white"/>
</clipPath>
</defs>
</svg>
